<?xml version="1.0" encoding="UTF-8"?>
<svg xmlns="http://www.w3.org/2000/svg" viewBox="0 0 1402 1122" role="img">
  <defs>
    <radialGradient id="light" cx="47%" cy="24%" r="58%">
      <stop offset="0" stop-color="#ffffff" stop-opacity=".32"/>
      <stop offset=".55" stop-color="#67bde6" stop-opacity=".13"/>
      <stop offset="1" stop-color="#0e6095" stop-opacity="0"/>
    </radialGradient>
    <linearGradient id="glassGrad" x1="0" y1="0" x2="1" y2="1">
      <stop offset="0" stop-color="#fff" stop-opacity=".62"/>
      <stop offset=".42" stop-color="#fff" stop-opacity=".18"/>
      <stop offset="1" stop-color="#fff" stop-opacity=".5"/>
    </linearGradient>
    <filter id="softShadow" x="-20%" y="-20%" width="140%" height="150%">
      <feDropShadow dx="0" dy="28" stdDeviation="24" flood-color="#001525" flood-opacity=".35"/>
    </filter>
  </defs>
  <rect width="1402" height="1122" fill="#0e6095"/>
  <rect width="1402" height="1122" fill="url(#light)"/>
  <ellipse cx="701" cy="936" rx="360" ry="54" fill="rgba(0,0,0,.24)"/>
  <g filter="url(#softShadow)">
    <path d="M512 381h342v207c0 93-75 168-168 168h-6c-93 0-168-75-168-168V381Z" fill="#4c2418" opacity=".94"/>
    <path d="M861 444h64c59 0 107 48 107 107s-48 107-107 107h-64v-66h55c23 0 42-19 42-42s-19-42-42-42h-55v-64Z" fill="url(#glassGrad)"/>
    <ellipse cx="683" cy="382" rx="172" ry="45" fill="#9c5a35"/>
    <path d="M569 236c-35 37-35 72 0 108M696 210c-35 37-35 72 0 108M823 236c-35 37-35 72 0 108" fill="none" stroke="rgba(255,255,255,.62)" stroke-width="16" stroke-linecap="round"/></g>
</svg>