<?xml version="1.0" encoding="UTF-8"?>
<svg xmlns="http://www.w3.org/2000/svg" viewBox="0 0 1402 1122" role="img">
  <defs>
    <radialGradient id="light" cx="47%" cy="24%" r="58%">
      <stop offset="0" stop-color="#ffffff" stop-opacity=".32"/>
      <stop offset=".55" stop-color="#67bde6" stop-opacity=".13"/>
      <stop offset="1" stop-color="#0e6095" stop-opacity="0"/>
    </radialGradient>
    <linearGradient id="glassGrad" x1="0" y1="0" x2="1" y2="1">
      <stop offset="0" stop-color="#fff" stop-opacity=".62"/>
      <stop offset=".42" stop-color="#fff" stop-opacity=".18"/>
      <stop offset="1" stop-color="#fff" stop-opacity=".5"/>
    </linearGradient>
    <filter id="softShadow" x="-20%" y="-20%" width="140%" height="150%">
      <feDropShadow dx="0" dy="28" stdDeviation="24" flood-color="#001525" flood-opacity=".35"/>
    </filter>
  </defs>
  <rect width="1402" height="1122" fill="#0e6095"/>
  <rect width="1402" height="1122" fill="url(#light)"/>
  <ellipse cx="701" cy="936" rx="360" ry="54" fill="rgba(0,0,0,.24)"/>
  <g filter="url(#softShadow)">
    <path d="M548 251h306l-34 636c-3 58-51 103-109 103h-20c-58 0-106-45-109-103L548 251Z" fill="url(#glassGrad)" stroke="rgba(255,255,255,.68)" stroke-width="10"/>
    <path d="M589 481h224l-21 386c-2 34-30 60-64 60h-54c-34 0-62-26-64-60l-21-386Z" fill="#e98885" opacity=".9"/>
    <path d="M607 320c4 140 4 276 19 412" fill="none" stroke="rgba(255,255,255,.82)" stroke-width="13" stroke-linecap="round" opacity=".65"/>
    
    <circle cx="514" cy="760" r="112" fill="#e98885"/>
    <circle cx="514" cy="760" r="84" fill="#ffd5c8" opacity=".92"/>
    <line x1="514" y1="760" x2="586.8" y2="760.0" stroke="rgba(255,255,255,.62)" stroke-width="8"/><line x1="514" y1="760" x2="565.5" y2="811.5" stroke="rgba(255,255,255,.62)" stroke-width="8"/><line x1="514" y1="760" x2="514.0" y2="832.8" stroke="rgba(255,255,255,.62)" stroke-width="8"/><line x1="514" y1="760" x2="462.5" y2="811.5" stroke="rgba(255,255,255,.62)" stroke-width="8"/><line x1="514" y1="760" x2="441.2" y2="760.0" stroke="rgba(255,255,255,.62)" stroke-width="8"/><line x1="514" y1="760" x2="462.5" y2="708.5" stroke="rgba(255,255,255,.62)" stroke-width="8"/><line x1="514" y1="760" x2="514.0" y2="687.2" stroke="rgba(255,255,255,.62)" stroke-width="8"/><line x1="514" y1="760" x2="565.5" y2="708.5" stroke="rgba(255,255,255,.62)" stroke-width="8"/></g>
</svg>