<?xml version="1.0" encoding="UTF-8"?>
<svg xmlns="http://www.w3.org/2000/svg" viewBox="0 0 1402 1122" role="img">
  <defs>
    <radialGradient id="light" cx="47%" cy="24%" r="58%">
      <stop offset="0" stop-color="#ffffff" stop-opacity=".32"/>
      <stop offset=".55" stop-color="#67bde6" stop-opacity=".13"/>
      <stop offset="1" stop-color="#0e6095" stop-opacity="0"/>
    </radialGradient>
    <linearGradient id="glassGrad" x1="0" y1="0" x2="1" y2="1">
      <stop offset="0" stop-color="#fff" stop-opacity=".62"/>
      <stop offset=".42" stop-color="#fff" stop-opacity=".18"/>
      <stop offset="1" stop-color="#fff" stop-opacity=".5"/>
    </linearGradient>
    <filter id="softShadow" x="-20%" y="-20%" width="140%" height="150%">
      <feDropShadow dx="0" dy="28" stdDeviation="24" flood-color="#001525" flood-opacity=".35"/>
    </filter>
  </defs>
  <rect width="1402" height="1122" fill="#0e6095"/>
  <rect width="1402" height="1122" fill="url(#light)"/>
  <ellipse cx="701" cy="936" rx="360" ry="54" fill="rgba(0,0,0,.24)"/>
  <g filter="url(#softShadow)">
    <ellipse cx="701" cy="494" rx="214" ry="92" fill="#f7f5ec" opacity=".96"/>
    <path d="M490 496c24 187 110 297 211 297s187-110 211-297c-80 63-342 63-422 0Z" fill="url(#glassGrad)" stroke="rgba(255,255,255,.68)" stroke-width="10"/>
    <circle cx="540" cy="450" r="17" fill="#fff" opacity=".82"/><circle cx="585" cy="460" r="17" fill="#fff" opacity=".82"/><circle cx="630" cy="450" r="17" fill="#fff" opacity=".82"/><circle cx="675" cy="460" r="17" fill="#fff" opacity=".82"/><circle cx="720" cy="450" r="17" fill="#fff" opacity=".82"/><circle cx="765" cy="460" r="17" fill="#fff" opacity=".82"/><circle cx="810" cy="450" r="17" fill="#fff" opacity=".82"/><circle cx="855" cy="460" r="17" fill="#fff" opacity=".82"/><circle cx="540" cy="504" r="17" fill="#fff" opacity=".82"/><circle cx="585" cy="514" r="17" fill="#fff" opacity=".82"/><circle cx="630" cy="504" r="17" fill="#fff" opacity=".82"/><circle cx="675" cy="514" r="17" fill="#fff" opacity=".82"/><circle cx="720" cy="504" r="17" fill="#fff" opacity=".82"/><circle cx="765" cy="514" r="17" fill="#fff" opacity=".82"/><circle cx="810" cy="504" r="17" fill="#fff" opacity=".82"/><circle cx="855" cy="514" r="17" fill="#fff" opacity=".82"/></g>
</svg>