<?xml version="1.0" encoding="UTF-8"?>
<svg xmlns="http://www.w3.org/2000/svg" viewBox="0 0 1402 1122" role="img">
  <defs>
    <radialGradient id="light" cx="47%" cy="24%" r="58%">
      <stop offset="0" stop-color="#ffffff" stop-opacity=".32"/>
      <stop offset=".55" stop-color="#67bde6" stop-opacity=".13"/>
      <stop offset="1" stop-color="#0e6095" stop-opacity="0"/>
    </radialGradient>
    <linearGradient id="glassGrad" x1="0" y1="0" x2="1" y2="1">
      <stop offset="0" stop-color="#fff" stop-opacity=".62"/>
      <stop offset=".42" stop-color="#fff" stop-opacity=".18"/>
      <stop offset="1" stop-color="#fff" stop-opacity=".5"/>
    </linearGradient>
    <filter id="softShadow" x="-20%" y="-20%" width="140%" height="150%">
      <feDropShadow dx="0" dy="28" stdDeviation="24" flood-color="#001525" flood-opacity=".35"/>
    </filter>
  </defs>
  <rect width="1402" height="1122" fill="#0e6095"/>
  <rect width="1402" height="1122" fill="url(#light)"/>
  <ellipse cx="701" cy="936" rx="360" ry="54" fill="rgba(0,0,0,.24)"/>
  <g filter="url(#softShadow)">
    <path d="M604 202h194v132c0 42 48 72 48 133v392c0 64-52 116-116 116h-58c-64 0-116-52-116-116V467c0-61 48-91 48-133V202Z" fill="url(#glassGrad)" stroke="rgba(255,255,255,.72)" stroke-width="10"/>
    <rect x="621" y="119" width="160" height="112" rx="34" fill="url(#glassGrad)" stroke="rgba(255,255,255,.66)" stroke-width="9"/>
    <path d="M577 510h248v337c0 39-32 71-71 71H648c-39 0-71-32-71-71V510Z" fill="#63824a" opacity=".9"/>
    <path d="M627 251c-2 101-50 119-50 218v85" fill="none" stroke="rgba(255,255,255,.82)" stroke-width="13" stroke-linecap="round" opacity=".7"/>
    <circle cx="829" cy="258" r="19" fill="#d7e6b8" opacity=".9"/>
    </g>
</svg>