<svg xmlns="http://www.w3.org/2000/svg" width="1402" height="1122" viewBox="0 0 1402 1122" role="img" aria-label="Black Russian cocktail">
  <rect width="1402" height="1122" fill="#0e6095"/>
  <ellipse cx="701" cy="928" rx="360" ry="54" fill="#08273d" opacity=".28"/>
  <g transform="translate(0 12)">
    <path d="M485 326h432l-72 552c-5 41-39 72-80 72H637c-41 0-75-31-80-72l-72-552Z" fill="#d7eef8" opacity=".3"/>
    <path d="M526 377h350l-58 456c-5 38-37 66-76 66h-82c-39 0-71-28-76-66l-58-456Z" fill="#1a0f0a"/>
    <path d="M526 377h350l-15 118H541l-15-118Z" fill="#2d1b10"/>
    <path d="M549 441c84 42 218 42 304 0l-12 94c-87 34-194 34-280 0l-12-94Z" fill="#6b3518" opacity=".9"/>
    <ellipse cx="701" cy="327" rx="217" ry="43" fill="#effbff" opacity=".72"/>
    <ellipse cx="701" cy="329" rx="179" ry="28" fill="#1f130d"/>
    <ellipse cx="701" cy="880" rx="151" ry="30" fill="#f3fbff" opacity=".36"/>
    <path d="M485 326h432M557 878c5 41 39 72 80 72h128c41 0 75-31 80-72" fill="none" stroke="#f5fcff" stroke-width="16" stroke-linecap="round" opacity=".62"/>
    <g opacity=".88">
      <rect x="594" y="538" width="104" height="88" rx="16" fill="#e7f5fa" opacity=".72" transform="rotate(-9 646 582)"/>
      <rect x="715" y="610" width="112" height="96" rx="17" fill="#e7f5fa" opacity=".66" transform="rotate(12 771 658)"/>
      <rect x="595" y="711" width="104" height="88" rx="16" fill="#e7f5fa" opacity=".58" transform="rotate(10 647 755)"/>
    </g>
    <path d="M821 379c-9 141-17 260-30 405" fill="none" stroke="#ffffff" stroke-width="20" stroke-linecap="round" opacity=".24"/>
  </g>
  <g transform="translate(224 808)">
    <ellipse cx="94" cy="69" rx="88" ry="28" fill="#101820" opacity=".16"/>
    <rect x="35" y="0" width="94" height="134" rx="18" fill="#2b1a11"/>
    <rect x="50" y="17" width="64" height="100" rx="10" fill="#5b2b13"/>
    <path d="M36 18c34 15 61 15 93 0" fill="none" stroke="#c89b60" stroke-width="10" opacity=".58"/>
  </g>
  <g transform="translate(1034 830)">
    <ellipse cx="71" cy="46" rx="70" ry="24" fill="#101820" opacity=".14"/>
    <rect x="22" y="0" width="84" height="98" rx="14" fill="#15100d"/>
    <rect x="35" y="14" width="58" height="70" rx="9" fill="#5d3119"/>
  </g>
</svg>
